<svg xmlns="http://www.w3.org/2000/svg" viewBox="0 0 1812.18 585.26"><defs><style>.cls-1,.cls-10,.cls-9{fill:none;stroke-miterlimit:10;}.cls-1{stroke:#d4532b;}.cls-1,.cls-9{stroke-width:4px;}.cls-2{fill:#fff;}.cls-3{fill:#f68023;}.cls-4{fill:#f68421;}.cls-5{fill:#f6732a;}.cls-6{fill:#f67528;}.cls-7{fill:#f67c25;}.cls-8{fill:#f67827;}.cls-10,.cls-9{stroke:#ed5c31;}.cls-10{stroke-width:3px;}.cls-11{fill:#f6712a;}</style></defs><title>justnep1</title><g id="Layer_1" data-name="Layer 1"><path class="cls-1" d="M133.09,444.88s12.23,14.07,6.12,36.64c0,0-3.23,16.57-13.26,21.68,0,0-10.89,4.52-17.68-11,0,0-4.53-8.89-4.2-18.33,0,0-4.21-17.75,9.3-30,0,0,7.18-6,6.1-20.28l-4.17-86.4s-3.07-16.32,3.81-19.72c0,0,10.91-8,13.39,11.22,0,0-7.21,72.33-6.46,94.65A29.93,29.93,0,0,0,133.09,444.88Z" transform="translate(-73.73 -108.02)"/><path class="cls-2" d="M501.43,418.49S485,537.67,493.58,558.37c0,0,7.14,54.24,89.21,56.38,0,0,89.92,2.85,115.61-91.35,0,0,30-79.21,13.56-122,0,0-45.67-35-59.23,32.11,0,0,.71,92.06-46.39,117,0,0-64.94,33.54-55.66-56.38,0,0,19.27-72.08,15.7-87.06C566.37,407.08,542.11,363.54,501.43,418.49Z" transform="translate(-73.73 -108.02)"/><path class="cls-2" d="M812.58,449.89h87.78a30.74,30.74,0,0,0,5.71-56.38l-104.91-2.14C751.22,416,730.05,463,742.64,494.14c8.63,21.35,31.41,31,40.68,34.25q2.44.76,5,1.43A116.84,116.84,0,0,0,839,531.25a13,13,0,0,1-.71,23.55l-95.63-.71C727.16,559,717,573,717.67,587.63c.75,17.19,16,26.46,17.13,27.12l108.47-1.43c33.72-9.62,59.22-34.43,64.94-64.23,5.53-28.83-8.56-52.81-8.56-52.81a73,73,0,0,0-19.27-21.41l-70.65-1.43c-4.68-1.67-8.07-5.57-8.56-10C800.49,457.43,805.27,451.11,812.58,449.89Z" transform="translate(-73.73 -108.02)"/><path class="cls-2" d="M961.73,381.38s2.14-55.66,40-57.8c0,0,29.26-5,27.12,37.82l-1.43,26.4,77.07-1.43c1.29.62,15.74,7.88,17.84,22.84,2,14.12-7.9,29.17-24.26,34.25l-85.64-2.14s-11.42,54.24-7.85,88.49c0,0,10,38.54,67.8,16.41l30-16.41s55.66,7.85,7.85,55.66c0,0-64.23,59.23-139.87,8.56,0,0-49.24-37.82-23.55-129.17Z" transform="translate(-73.73 -108.02)"/><path class="cls-2" d="M1144.42,595.48s4.28-83.5,27.12-132.74c0,0,35-67.08,98.48-75.65,0,0,94.91-12.13,112.76,70.65a408.07,408.07,0,0,1-12.85,127.74c-1.25,19-17.68,33.25-35.68,32.11-16.75-1.06-30.67-15.2-31.4-32.83a426.7,426.7,0,0,0,10-112c-1.51-2.18-13.28-18.65-34.25-20-17.7-1.13-34.86,9-43.53,25.69l-25.69,117.75c-7.69,16.88-25.16,25.78-40.68,22.12C1151.57,614.28,1144.93,596.88,1144.42,595.48Z" transform="translate(-73.73 -108.02)"/><path class="cls-2" d="M1394.67,511s22.84-105.62,113.23-123.7c0,0,118-32.35,123.7,113.23L1564,486.29s-37.11-78-88.49-2.85l-5.71,46.62s4.76,38.06,75.17,10.47l8.33.24c1.87.23,14.79,2,22.12,13.56,6.35,10,6,23.26-1,33.78a103.59,103.59,0,0,1-35.8,23.67c-55.95,21.7-110.87-16.17-117.39-20.81a99.9,99.9,0,0,1-16.41-23.43C1393.16,544.2,1393.63,522,1394.67,511Z" transform="translate(-73.73 -108.02)"/><path class="cls-2" d="M1460.33,484.39l144.63,1,26.64,15.22s1,24.74-32.35,30.45h-156Z" transform="translate(-73.73 -108.02)"/><path class="cls-3" d="M1643,559.08" transform="translate(-73.73 -108.02)"/><path class="cls-2" d="M1626.84,681.83c2.3,2.08,13.95,12.18,31.4,11.42,19.82-.87,31.21-15,32.83-17.13a368.55,368.55,0,0,0,12.85-68.51c3.72-41.54-1.65-63.38,9.28-97.41a168,168,0,0,1,20-41.39c13.37-14.27,32.92-20.26,50.67-15.34,19,5.28,28.13,20.93,30,24.26l71.36-2.85c-1-16.66-5.7-43.55-25.69-62.8-34.85-33.56-104.56-32.68-164.14,12.13-27,32.18-39.81,61.8-46.39,81.36-4.79,14.23-7.71,30.42-13.56,62.8-8,44.3-9,67.83-9.28,79.93C1625.85,662.26,1626.34,673.85,1626.84,681.83Z" transform="translate(-73.73 -108.02)"/><path class="cls-2" d="M1812.39,474.16l72.79-2.85a124.54,124.54,0,0,1-4.46,49.24c-17.23,56.88-71,81.23-81.18,85.64-33.09,11.29-57.63,10.38-71.36,8.56-13.3-1.76-21.11-4.87-23.55-10.7-2.73-6.52,0-19.32-.36-26.4-.14-2.78-.38-5.57-.38-5.57-.15-1.76-.31-3-.33-3.35-.3-4.21-.11-7.5.71-16.77.59-6.61.88-9.91,1.07-11.42a157,157,0,0,1,5.35-25.33c18.14,31.69,57.26,40.22,81.71,23.91C1811.36,526.45,1820.2,499.75,1812.39,474.16Z" transform="translate(-73.73 -108.02)"/><path class="cls-4" d="M1722.83,588.52" transform="translate(-73.73 -108.02)"/><path class="cls-5" d="M243.84,251.2a25.34,25.34,0,0,1-5.86-6.38c-7.77-12.2-3.17-29.33,3.91-39.79a44.11,44.11,0,0,1,17.58-14.93,4.28,4.28,0,0,1,4.86,1,4.16,4.16,0,0,1,.72,3.48,4.7,4.7,0,0,1-2.8,3.11c-15.07,12.73-21.6,28.86-16.66,39.75a19.46,19.46,0,0,0,6.8,7.89l-7.5,6.75" transform="translate(-73.73 -108.02)"/><path class="cls-6" d="M262.24,202.94s4.51-16.32,14.58-20.48c0,0,7.29-5.55,17,5.21,0,0,17.36,14.93,19.79,14.93l6.25,10.07s6.94-22.91,26-33c0,0,9.72,1,3.47,8.33,0,0-19.09,10.76-19.79,24.3l.35,12.84L316,227.59s-1.74-20.83-12.5-21.87c0,0-18.63-14.81-20.37-16.66,0,0-11.92,2.78-13.65,18.75C269.53,207.8,259.81,213,262.24,202.94Z" transform="translate(-73.73 -108.02)"/><path class="cls-6" d="M282,219.09s6.48-1.45,4.63-6.08c0,0-7.17-4.4-5.79-14.81l2.78,1.39s8.33,17.13,19.9,16c0,0,10-3.47-3-10,0,0-8.33-3.24-8.56-8.1,0,0-11.57-2.78-12.5-3.7a30.27,30.27,0,0,1-2.78-4.4S262.59,202.25,282,219.09Z" transform="translate(-73.73 -108.02)"/><path class="cls-7" d="M400.41,225.51s3.7-17.94-1.39-20.71c0,0-5.9-10-17.18-14.35,0,0-14.58-17-18.05-9.37,0,0-7.12,17.71-9.55,17.88,0,0-7.29,2.08-5.9-6.08,0,0,4.51-3.12,5.21-11.11,0,0,6.94-17.36,21.18-8,0,0,33,25.69,31.94,29.51,0,0,21.18-23.26,29.86-19.79,0,0,6.6,4.51-4.51,10.76,0,0-23.61,13.54-21.52,21.87l.35,9.72-10.41-.35" transform="translate(-73.73 -108.02)"/><path class="cls-6" d="M366.56,207.8s8.68,3.82,6.08-5.55c0,0-8.33-5.9-4.69-14.58,0,0,7.64,17.71,19.61,17.71,0,0,10.59-1,1.74-8,0,0-12.67-7.12-12.15-10.76,0,0-10.76-.69-13.37-5.55C363.78,181.07,349.72,193.4,366.56,207.8Z" transform="translate(-73.73 -108.02)"/><path class="cls-7" d="M436.17,193.57s-3.82,14.58,6.25,6.6l4.51-7.29s-5.55,14.23,4.86,22.22c0,0,12.84-.69,1.74-10.76,0,0-1-10.41,2.08-10.76,0,0,.35,16.66,17.71,21.52,0,0,10.07-2.43-1-9,0,0-7.64-3.82-8.68-11.8,0,0,18.75,17.71,18.75,20.14,0,0,3.47,16.32-1,19.09,0,0,.69,3.93-6.25,7.52h0l8.68,5.67s16.32-24.3,5.55-35.76c0,0-4.17-11.11-14.23-15.28,0,0-8-18.05-18.4-18.4,0,0-9.72-1-14.23,8Z" transform="translate(-73.73 -108.02)"/><path class="cls-8" d="M256.86,132.12a4.14,4.14,0,0,1,6.08,5.55,46.71,46.71,0,0,0-8.51,11.63c.64.74,1.41,1.51,2.26,2.32a17.62,17.62,0,0,0,4.34,3.23s8.33,5,2.6,13.37c0,0-4.34,6.42-3.65,8,0,0,1.74,4.34,4.69,5.38,0,0,.17,7.46-7.12,5.21,0,0-10.07-3.65-6.08-12.67,0,0,7.12-10.59,5.55-11.46s-9.89-5.21-10.07-9.89a17.92,17.92,0,0,1-.24-5.71C247.79,138.32,255.17,133.23,256.86,132.12Z" transform="translate(-73.73 -108.02)"/><path class="cls-8" d="M343,122.05a4.14,4.14,0,0,1,6.08,5.55,46.71,46.71,0,0,0-8.51,11.63c.64.74,1.41,1.51,2.26,2.32a17.62,17.62,0,0,0,4.34,3.23s8.33,5,2.6,13.37c0,0-4.34,6.42-3.65,8,0,0,1.74,4.34,4.69,5.38,0,0,.17,7.46-7.12,5.21,0,0-10.07-3.65-6.08-12.67,0,0,7.12-10.59,5.55-11.46s-9.89-5.21-10.07-9.89a17.92,17.92,0,0,1-.24-5.71C333.88,128.25,341.26,123.16,343,122.05Z" transform="translate(-73.73 -108.02)"/><path class="cls-8" d="M441.24,124.3a4.14,4.14,0,0,1,5.05,6.5,46.71,46.71,0,0,0-10.35,10c.51.84,1.13,1.73,1.83,2.67a17.62,17.62,0,0,0,3.73,3.92s7.36,6.37.31,13.61c0,0-5.36,5.6-4.94,7.26,0,0,1,4.57,3.71,6.09,0,0-1.09,7.39-7.89,3.93,0,0-9.31-5.29-3.85-13.51,0,0,8.8-9.24,7.41-10.35s-8.87-6.8-8.25-11.45a17.92,17.92,0,0,1,.73-5.66C431.25,128.88,439.39,125.11,441.24,124.3Z" transform="translate(-73.73 -108.02)"/><path class="cls-8" d="M483,119.49a3.2,3.2,0,0,1,3.8,5.08,36,36,0,0,0-8.12,7.59c.38.66.85,1.35,1.38,2.08a13.59,13.59,0,0,0,2.82,3.07s5.59,5,0,10.5c0,0-4.21,4.24-3.91,5.53,0,0,.69,3.54,2.78,4.75,0,0-.94,5.68-6.14,2.92,0,0-7.1-4.21-2.78-10.48,0,0,6.92-7,5.86-7.88s-6.75-5.37-6.2-8.95a13.82,13.82,0,0,1,.64-4.36C475.21,122.88,481.54,120.09,483,119.49Z" transform="translate(-73.73 -108.02)"/><path class="cls-8" d="M383.14,108.68a3.2,3.2,0,0,1,4.42,4.56,36,36,0,0,0-7.09,8.56c.46.6,1,1.23,1.63,1.89a13.59,13.59,0,0,0,3.19,2.69s6.18,4.26,1.39,10.41c0,0-3.64,4.74-3.18,6,0,0,1.14,3.42,3.36,4.36,0,0-.21,5.75-5.72,3.68,0,0-7.58-3.27-4.09-10,0,0,6-7.82,4.81-8.56s-7.38-4.47-7.29-8.08a13.82,13.82,0,0,1,.08-4.4C375.87,113,381.79,109.45,383.14,108.68Z" transform="translate(-73.73 -108.02)"/><path class="cls-8" d="M297.26,120.06a3.22,3.22,0,0,1,4.45,4.59,36.31,36.31,0,0,0-7.14,8.63c.46.61,1,1.24,1.64,1.91a13.69,13.69,0,0,0,3.22,2.71s6.23,4.3,1.4,10.49c0,0-3.67,4.78-3.2,6,0,0,1.14,3.45,3.39,4.39,0,0-.21,5.8-5.77,3.71,0,0-7.64-3.3-4.12-10.12,0,0,6-7.88,4.85-8.63s-7.43-4.5-7.35-8.15a13.93,13.93,0,0,1,.08-4.44C289.93,124.45,295.89,120.84,297.26,120.06Z" transform="translate(-73.73 -108.02)"/><path class="cls-9" d="M185.52,502.54l-.35-4.17s.35-31.24-1-39.92S173,437.62,173,437.62L174.76,406l4.86-81.93c-1.16-6.88-7.31-11.41-13.26-10.67-4.74.59-8.82,4.45-10,9.63l8.33,115.26a33.85,33.85,0,0,0-11.57,21.41l.12,35.87" transform="translate(-73.73 -108.02)"/><path class="cls-10" d="M153.93,469.1c1.18-3.42,4.41-5,6.74-4.26s2.92,3.42,3,3.68l-.35,24" transform="translate(-73.73 -108.02)"/><path class="cls-10" d="M163.39,468.35c.71-3.78,4.16-5.71,6.55-4.92,1.69.55,2.93,2.49,3.08,4.75v26.27" transform="translate(-73.73 -108.02)"/><path class="cls-10" d="M172.41,466.44a6.08,6.08,0,0,1,11.72.61" transform="translate(-73.73 -108.02)"/></g><g id="Layer_2" data-name="Layer 2"><path class="cls-11" d="M232.18,286.09c-4.93-13.73,3.92-25.38,4.48-26.09,11.09-13.11,21.72-19.65,29.62-23.14.83-.37,1.55-.67,1.94-.83,4.56-1.84,13.05-4.55,32.78-7.51,10.39-1.56,24.57-3.29,41.66-4.17a441.8,441.8,0,0,1,48.49.52c27.19,1.56,60.29,5.73,83.9,16.14,12.94,4.27,22.12,14.88,23.32,27,1.05,10.57-4.34,18.57-6.12,21a188.32,188.32,0,0,1-38.75,27.25,35.22,35.22,0,0,0-7.61,27.06l-4.17,200.43s5.55,88.87-89.8,130.53c0,0-72.21,32.4-180.52,3.7a130.79,130.79,0,0,1-46.64-22.57c-39.42-30.16-48.77-74-51-86.91,0-6.09.49-34.37,22.52-56.24a76.28,76.28,0,0,1,34.41-19.44,80.84,80.84,0,0,1,38.88,0c7.8,2,26.86,6.76,40.27,25,14.14,19.22,12.42,40.36,11.8,45.83-7.77,13.86-6.14,29.71,2.78,38.19,12.22,11.62,32,3.5,35.41,2.08,22.08-9.08,27.8-33.72,28.47-36.8a615,615,0,0,0,4.4-62.26c.64-33.14-2-37.08-2.78-94.43-.2-15.13-1.55-30.24-1.39-45.36.26-24.44,2-34.41-4.63-44.44-6.88-10.39-18.7-14.69-27.31-16.66A27.55,27.55,0,0,1,232.18,286.09Z" transform="translate(-73.73 -108.02)"/></g></svg>